<svg xmlns="http://www.w3.org/2000/svg" width="23.946" height="28.992" viewBox="0 0 23.946 28.992">
  <g id="Group_108" data-name="Group 108" transform="translate(0 1)">
    <g id="Path_3237" data-name="Path 3237" transform="translate(2.246 4.937)" fill="none">
      <path d="M-.308,0H19.543L21.7,19.366a3.576,3.576,0,0,1-3.452,3.689H1.206a3.576,3.576,0,0,1-3.452-3.689Z" stroke="none"/>
      <path d="M 1.502265930175781 2.000003814697266 L -0.2443752288818359 19.44872283935547 C -0.2071514129638672 20.34164047241211 0.4292793273925781 21.05484390258789 1.206256866455078 21.05484390258789 L 18.24759674072266 21.05484390258789 C 19.02193450927734 21.05484390258789 19.65667343139648 20.34662628173828 19.69782257080078 19.45796585083008 L 17.75384330749512 2.000003814697266 L 1.502265930175781 2.000003814697266 M -0.3075237274169922 3.814697265625e-06 L 19.54349708557129 3.814697265625e-06 L 21.69994735717773 19.36607360839844 C 21.69994735717773 21.40332412719727 20.15427589416504 23.05484390258789 18.24759674072266 23.05484390258789 L 1.206256866455078 23.05484390258789 C -0.7004222869873047 23.05484390258789 -2.24609375 21.40332412719727 -2.24609375 19.36607360839844 L -0.3075237274169922 3.814697265625e-06 Z" stroke="none" fill="#fff"/>
    </g>
    <path id="Path_3238" data-name="Path 3238" d="M7712.165,10404.835s-.354-7.849,4.321-7.849,4.39,7.849,4.39,7.849" transform="translate(-7704.544 -10396.986)" fill="none" stroke="#fff" stroke-linecap="round" stroke-width="2"/>
  </g>
</svg>
